<svg id="svg" version="1.1" xmlns="http://www.w3.org/2000/svg" xmlns:xlink="http://www.w3.org/1999/xlink" width="400" height="400" viewBox="0, 0, 400,400"><g id="svgg"><path id="path0" d="M0.000 200.000 L 0.000 400.000 200.000 400.000 L 400.000 400.000 400.000 200.000 L 400.000 0.000 200.000 0.000 L 0.000 0.000 0.000 200.000 M216.600 7.609 C 220.120 7.832,224.551 8.283,226.447 8.610 C 228.342 8.938,231.285 9.383,232.985 9.598 C 235.813 9.957,238.277 10.462,245.600 12.184 C 252.124 13.718,257.995 15.394,261.800 16.806 C 262.900 17.214,264.430 17.724,265.200 17.939 C 266.859 18.402,270.841 19.983,278.100 23.060 C 302.181 33.267,328.851 52.809,345.461 72.417 C 346.307 73.416,347.810 75.203,348.800 76.388 C 349.790 77.572,351.156 79.185,351.834 79.971 C 355.029 83.669,364.397 96.996,366.088 100.247 C 366.418 100.881,367.856 103.470,369.284 106.000 C 370.712 108.530,372.914 112.760,374.177 115.400 C 375.441 118.040,376.908 121.103,377.437 122.206 C 377.967 123.309,378.401 124.389,378.402 124.606 C 378.404 124.823,378.687 125.540,379.031 126.200 C 379.641 127.369,380.351 129.202,382.014 133.900 C 382.462 135.165,383.004 136.560,383.219 137.000 C 383.682 137.947,384.922 142.057,386.183 146.822 C 386.681 148.705,387.271 150.595,387.494 151.022 C 387.717 151.450,388.113 153.060,388.374 154.600 C 388.634 156.140,389.094 158.133,389.395 159.029 C 389.696 159.925,390.150 162.171,390.403 164.020 C 390.656 165.868,391.115 168.375,391.423 169.591 C 391.731 170.806,392.264 174.770,392.608 178.400 C 392.952 182.030,393.396 186.440,393.595 188.200 C 394.086 192.540,394.080 209.353,393.586 213.800 C 393.367 215.780,392.928 220.235,392.612 223.700 C 392.296 227.165,391.765 231.125,391.431 232.500 C 391.098 233.875,390.627 236.512,390.385 238.360 C 390.143 240.208,389.702 242.368,389.405 243.160 C 389.108 243.952,388.647 245.860,388.381 247.400 C 388.115 248.940,387.667 250.768,387.385 251.462 C 387.103 252.156,386.656 253.776,386.391 255.062 C 386.126 256.348,385.680 257.850,385.400 258.400 C 385.120 258.950,384.596 260.557,384.236 261.971 C 383.875 263.385,383.422 264.735,383.229 264.971 C 383.036 265.207,382.663 266.210,382.401 267.200 C 382.138 268.190,381.490 269.950,380.962 271.112 C 380.433 272.273,380.000 273.377,380.000 273.564 C 380.000 273.910,378.568 277.307,377.203 280.200 C 376.788 281.080,375.889 283.060,375.206 284.600 C 374.522 286.140,373.683 287.940,373.340 288.600 C 370.669 293.748,366.669 300.953,365.013 303.600 C 361.390 309.392,354.906 318.552,351.989 322.000 C 351.152 322.990,349.328 325.150,347.936 326.800 C 334.904 342.246,315.208 359.187,300.971 367.194 C 299.667 367.927,298.357 368.723,298.059 368.963 C 296.928 369.877,286.866 375.090,282.200 377.181 C 280.660 377.871,278.734 378.788,277.921 379.218 C 277.107 379.648,276.253 380.000,276.022 380.000 C 275.791 380.000,274.459 380.540,273.062 381.200 C 271.665 381.860,270.290 382.400,270.005 382.400 C 269.720 382.400,268.748 382.743,267.844 383.163 C 265.985 384.025,262.249 385.286,258.393 386.352 C 256.959 386.748,255.429 387.261,254.993 387.491 C 254.557 387.722,253.120 388.121,251.800 388.379 C 250.480 388.637,248.770 389.086,248.000 389.376 C 247.230 389.666,245.250 390.121,243.600 390.388 C 241.950 390.654,239.851 391.119,238.935 391.420 C 238.019 391.720,235.139 392.252,232.535 392.601 C 229.931 392.949,226.270 393.501,224.400 393.826 C 216.733 395.161,183.096 394.975,176.850 393.563 C 175.833 393.333,172.930 392.886,170.400 392.571 C 167.870 392.255,164.990 391.740,164.000 391.427 C 163.010 391.113,160.850 390.642,159.200 390.380 C 157.550 390.118,155.570 389.666,154.800 389.376 C 154.030 389.086,152.320 388.637,151.000 388.379 C 149.680 388.120,148.150 387.681,147.600 387.403 C 147.050 387.125,145.630 386.692,144.444 386.441 C 143.258 386.190,141.728 385.729,141.044 385.417 C 140.360 385.105,138.900 384.587,137.800 384.265 C 136.700 383.944,135.260 383.394,134.600 383.043 C 133.940 382.692,133.123 382.404,132.785 382.402 C 132.446 382.401,131.471 382.044,130.617 381.609 C 129.764 381.174,128.421 380.611,127.633 380.358 C 126.845 380.106,125.210 379.458,124.000 378.918 C 119.664 376.985,117.390 375.923,116.800 375.557 C 116.470 375.352,115.570 374.913,114.800 374.582 C 114.030 374.251,113.130 373.801,112.800 373.581 C 112.470 373.361,111.300 372.724,110.200 372.165 C 107.870 370.982,105.353 369.561,102.113 367.600 C 100.841 366.830,99.650 366.135,99.467 366.056 C 98.743 365.742,89.996 359.731,86.600 357.214 C 76.363 349.628,61.301 335.380,53.392 325.800 C 51.213 323.160,49.327 320.910,49.201 320.800 C 48.750 320.405,42.497 311.751,40.965 309.400 C 40.104 308.080,39.260 306.820,39.089 306.600 C 38.919 306.380,38.278 305.390,37.666 304.400 C 35.178 300.379,34.000 298.330,34.000 298.027 C 34.000 297.852,33.660 297.275,33.244 296.747 C 32.118 295.316,24.004 278.974,23.998 278.125 C 23.996 277.946,23.707 277.260,23.356 276.600 C 23.004 275.940,22.390 274.500,21.990 273.400 C 21.590 272.300,20.696 269.870,20.002 268.000 C 19.308 266.130,18.414 263.520,18.015 262.200 C 17.617 260.880,17.015 259.080,16.679 258.200 C 16.343 257.320,15.962 256.060,15.831 255.400 C 15.701 254.740,15.245 253.030,14.819 251.600 C 13.931 248.624,12.145 240.973,11.784 238.600 C 11.651 237.720,11.200 235.200,10.784 233.000 C 7.317 214.702,7.313 186.491,10.775 169.200 C 11.194 167.110,11.650 164.500,11.789 163.400 C 11.928 162.300,12.323 160.410,12.668 159.200 C 13.013 157.990,13.621 155.560,14.020 153.800 C 15.136 148.877,16.021 145.556,16.685 143.800 C 17.018 142.920,17.620 141.120,18.022 139.800 C 19.185 135.987,20.666 131.903,21.358 130.600 C 21.708 129.940,21.996 129.129,21.998 128.797 C 21.999 128.465,22.450 127.348,23.000 126.315 C 23.550 125.282,24.000 124.259,24.000 124.042 C 24.000 123.629,27.750 115.512,29.379 112.400 C 33.835 103.886,35.993 100.208,40.411 93.600 C 45.475 86.024,46.757 84.315,53.126 76.653 C 61.714 66.320,75.287 53.351,85.415 45.798 C 87.167 44.491,88.690 43.326,88.800 43.208 C 89.229 42.747,99.510 36.031,101.400 34.978 C 102.500 34.364,103.643 33.668,103.941 33.431 C 105.092 32.513,114.517 27.627,120.600 24.794 C 125.676 22.429,126.665 22.000,127.029 22.000 C 127.237 22.000,128.215 21.572,129.203 21.049 C 130.191 20.526,131.630 19.968,132.400 19.810 C 133.170 19.651,134.160 19.304,134.600 19.038 C 135.040 18.772,137.560 17.873,140.200 17.040 C 142.840 16.207,145.990 15.192,147.200 14.785 C 148.410 14.378,150.030 13.931,150.800 13.791 C 151.570 13.651,153.370 13.194,154.800 12.775 C 156.230 12.357,158.795 11.741,160.500 11.407 C 162.205 11.073,164.905 10.541,166.500 10.225 C 180.295 7.487,199.159 6.502,216.600 7.609 M173.894 34.700 C 162.835 45.559,151.650 56.480,133.386 74.252 C 94.721 111.876,91.461 115.177,91.938 116.225 C 92.328 117.080,95.038 118.000,97.169 118.000 C 97.571 118.000,98.687 118.280,99.650 118.623 C 100.612 118.966,103.020 119.594,105.000 120.018 C 106.980 120.443,109.770 121.081,111.200 121.435 C 112.630 121.789,115.510 122.501,117.600 123.019 C 124.674 124.770,126.592 125.224,130.178 126.000 C 132.146 126.426,134.036 126.896,134.378 127.044 C 134.720 127.193,136.845 127.737,139.101 128.253 C 141.356 128.769,145.046 129.632,147.301 130.171 C 156.944 132.475,160.384 133.286,163.400 133.969 C 165.160 134.368,167.590 134.976,168.800 135.322 C 171.583 136.116,177.179 137.454,181.688 138.404 C 183.607 138.808,185.367 139.256,185.600 139.400 C 185.833 139.544,187.593 140.000,189.512 140.414 C 191.430 140.827,193.990 141.424,195.200 141.740 C 213.316 146.469,215.638 146.285,212.718 140.351 C 211.284 137.439,210.942 136.684,207.572 129.000 C 206.221 125.920,204.775 122.668,204.358 121.774 C 203.941 120.879,203.600 120.043,203.600 119.915 C 203.600 119.787,202.590 117.549,201.355 114.941 C 200.120 112.333,198.853 109.483,198.540 108.607 C 198.226 107.730,197.695 106.594,197.359 106.081 C 196.458 104.706,196.960 102.916,198.331 102.615 C 200.468 102.146,216.137 104.909,222.363 106.854 C 228.846 108.878,233.469 110.496,234.286 111.025 C 234.773 111.341,235.392 111.600,235.661 111.600 C 236.061 111.600,243.453 115.185,247.945 117.557 C 258.207 122.978,271.350 134.819,278.624 145.199 C 281.656 149.526,280.593 149.848,291.187 141.400 C 293.118 139.860,296.000 137.610,297.591 136.400 C 299.182 135.190,301.618 133.300,303.004 132.200 C 304.390 131.100,306.828 129.210,308.421 128.000 C 310.014 126.790,311.917 125.184,312.650 124.432 L 313.982 123.064 312.291 121.205 C 311.361 120.183,309.250 117.832,307.600 115.981 C 297.588 104.749,285.166 92.845,277.800 87.423 C 277.360 87.099,276.460 86.414,275.800 85.900 C 275.140 85.386,274.065 84.628,273.410 84.215 C 272.756 83.802,272.036 83.310,271.810 83.122 C 271.585 82.933,270.500 82.217,269.400 81.529 C 268.300 80.842,266.770 79.877,266.000 79.385 C 264.402 78.363,264.354 78.338,257.120 74.700 C 254.167 73.215,251.604 72.000,251.425 72.000 C 251.246 72.000,250.088 71.572,248.850 71.048 C 241.706 68.025,231.073 64.989,223.436 63.791 C 221.436 63.477,218.090 62.945,216.000 62.610 C 213.910 62.274,206.906 61.781,200.436 61.514 C 185.568 60.902,187.168 62.419,186.398 48.200 C 185.094 24.111,184.896 23.897,173.894 34.700 M73.469 146.100 C 72.682 148.575,71.743 151.500,71.384 152.600 C 71.024 153.700,70.470 155.748,70.152 157.151 C 69.834 158.554,69.391 160.043,69.168 160.459 C 68.945 160.876,68.432 162.698,68.027 164.508 C 67.623 166.319,67.010 168.970,66.666 170.400 C 64.616 178.922,64.366 180.305,62.539 193.200 C 61.640 199.547,61.633 216.966,62.528 222.600 C 62.877 224.800,63.349 227.860,63.578 229.400 C 64.089 232.842,65.819 240.234,66.808 243.200 C 67.212 244.410,67.748 246.187,68.000 247.150 C 68.252 248.112,68.651 249.372,68.888 249.950 C 69.381 251.154,70.807 254.960,71.755 257.600 C 72.110 258.590,72.748 260.120,73.172 261.000 C 75.977 266.823,79.431 273.702,80.401 275.400 C 81.030 276.500,81.749 277.850,81.999 278.400 C 82.249 278.950,82.820 279.791,83.267 280.269 C 84.305 281.377,83.544 282.921,81.267 284.324 C 78.871 285.800,76.606 287.295,74.033 289.100 C 72.700 290.035,71.442 290.800,71.238 290.800 C 71.034 290.800,70.807 290.953,70.733 291.139 C 70.660 291.326,69.944 291.911,69.143 292.439 C 60.262 298.296,58.800 299.606,58.800 301.707 C 58.800 303.249,60.528 305.063,62.298 305.378 C 63.124 305.525,65.240 306.079,67.000 306.608 C 75.424 309.142,77.029 309.603,77.400 309.595 C 77.620 309.590,79.240 310.034,81.000 310.581 C 82.760 311.129,85.910 312.047,88.000 312.622 C 90.090 313.197,93.240 314.100,95.000 314.629 C 96.760 315.157,99.071 315.776,100.136 316.005 C 101.202 316.233,102.660 316.665,103.377 316.965 C 104.095 317.264,105.471 317.643,106.435 317.806 C 107.400 317.969,108.912 318.370,109.795 318.698 C 110.678 319.026,112.660 319.628,114.200 320.036 C 121.691 322.022,124.342 322.772,125.950 323.360 C 126.913 323.712,128.041 324.000,128.458 324.000 C 128.874 324.000,130.503 324.450,132.077 325.000 C 133.651 325.550,135.273 326.000,135.680 326.000 C 136.088 326.000,137.812 326.438,139.511 326.973 C 142.633 327.957,145.580 328.792,149.600 329.831 C 150.810 330.143,152.970 330.760,154.400 331.200 C 155.830 331.640,158.080 332.286,159.400 332.634 C 160.720 332.982,163.330 333.697,165.200 334.224 C 167.070 334.750,170.220 335.621,172.200 336.160 C 174.180 336.699,176.520 337.411,177.400 337.741 C 180.098 338.755,180.399 338.023,179.053 333.711 C 176.530 325.628,175.986 323.769,175.976 323.200 C 175.970 322.870,175.696 321.880,175.368 321.000 C 175.040 320.120,174.345 317.870,173.823 316.000 C 172.942 312.843,172.457 311.176,169.836 302.299 C 169.301 300.484,168.645 298.190,168.378 297.200 C 168.111 296.210,167.364 293.600,166.716 291.400 C 165.511 287.305,164.934 285.338,162.781 278.000 C 161.505 273.652,160.053 268.755,158.809 264.600 C 157.661 260.771,150.603 236.990,147.945 228.000 C 145.091 218.343,144.931 218.039,142.700 218.013 C 141.199 217.995,140.593 218.656,136.292 225.004 C 133.153 229.635,130.627 233.313,128.503 236.344 C 127.676 237.523,126.820 238.764,126.600 239.102 C 126.380 239.440,125.521 240.725,124.692 241.958 C 123.862 243.191,121.830 246.226,120.176 248.702 L 117.168 253.204 116.038 252.619 C 115.247 252.211,114.631 251.338,113.988 249.717 C 113.483 248.443,112.918 247.201,112.733 246.957 C 112.383 246.496,111.940 245.294,109.278 237.600 C 101.267 214.438,101.033 189.385,108.636 168.790 C 109.166 167.355,109.600 166.040,109.600 165.868 C 109.600 165.696,110.419 163.673,111.421 161.373 C 113.352 156.939,113.362 156.711,111.666 155.834 C 110.580 155.272,93.506 148.309,89.000 146.590 C 87.680 146.087,85.391 145.213,83.912 144.649 C 82.434 144.084,80.904 143.451,80.512 143.241 C 79.224 142.552,76.398 141.600,75.642 141.600 C 75.049 141.600,74.614 142.499,73.469 146.100 M329.860 150.141 C 327.736 152.486,324.265 156.183,320.024 160.615 C 317.701 163.043,314.000 166.916,311.800 169.222 C 309.600 171.528,303.113 178.272,297.385 184.207 C 287.227 194.733,283.710 198.410,275.973 206.589 C 270.161 212.734,263.454 219.753,258.763 224.600 C 244.199 239.648,245.241 238.359,246.134 240.231 C 246.944 241.929,247.670 242.218,252.000 242.559 C 253.870 242.707,257.200 243.094,259.400 243.419 C 261.600 243.744,266.190 244.272,269.600 244.592 C 273.010 244.912,278.140 245.459,281.000 245.807 C 283.860 246.155,286.965 246.532,287.900 246.644 C 290.577 246.967,290.297 248.195,286.348 253.462 C 278.267 264.242,269.492 272.829,260.147 279.102 C 252.810 284.027,242.003 289.706,238.200 290.634 C 237.540 290.795,236.640 291.153,236.200 291.431 C 235.760 291.708,234.590 292.139,233.600 292.388 C 232.610 292.637,231.080 293.119,230.200 293.458 C 229.320 293.798,227.430 294.309,226.000 294.594 C 224.570 294.880,222.320 295.409,221.000 295.770 C 219.680 296.132,216.836 296.539,214.681 296.675 C 208.503 297.066,208.597 296.769,210.609 309.600 C 212.037 318.712,213.226 326.866,213.786 331.400 C 214.543 337.520,214.710 337.601,222.800 335.785 C 224.230 335.464,226.750 334.927,228.400 334.593 C 230.050 334.259,232.570 333.642,234.000 333.222 C 235.430 332.803,237.680 332.245,239.000 331.984 C 240.320 331.723,241.850 331.283,242.400 331.008 C 242.950 330.732,244.120 330.383,245.000 330.232 C 246.924 329.900,252.146 328.220,255.250 326.933 C 256.488 326.420,257.789 326.000,258.141 326.000 C 258.494 326.000,259.731 325.566,260.891 325.036 C 262.051 324.506,264.350 323.505,266.000 322.811 C 267.650 322.117,269.360 321.347,269.800 321.101 C 270.240 320.854,271.140 320.404,271.800 320.101 C 272.460 319.797,273.353 319.355,273.785 319.118 C 277.368 317.152,278.402 316.575,279.800 315.759 C 280.680 315.246,281.894 314.546,282.498 314.204 C 295.607 306.776,315.964 286.469,324.004 272.800 C 324.457 272.030,325.349 270.590,325.986 269.600 C 327.873 266.671,329.747 263.478,330.273 262.297 C 331.290 260.013,332.390 260.101,338.168 262.927 C 341.046 264.335,345.380 266.432,347.800 267.587 C 350.220 268.743,353.493 270.314,355.073 271.078 C 361.365 274.123,364.707 272.399,362.983 266.998 C 362.632 265.899,362.017 263.650,361.616 262.000 C 361.215 260.350,360.431 257.290,359.873 255.200 C 359.316 253.110,358.413 249.690,357.867 247.600 C 356.679 243.047,351.942 225.258,350.572 220.200 C 349.101 214.770,345.572 201.320,344.904 198.600 C 344.580 197.280,343.981 195.030,343.572 193.600 C 342.717 190.608,341.489 185.923,340.427 181.600 C 338.799 174.972,337.949 171.679,337.227 169.200 C 336.446 166.518,335.690 163.598,334.431 158.400 C 332.286 149.536,331.573 148.249,329.860 150.141 " stroke="none" fill="#fafbfb" fill-rule="evenodd"></path><path id="path1" d="M185.800 7.608 C 181.078 7.890,172.195 9.095,166.500 10.225 C 164.905 10.541,162.205 11.073,160.500 11.407 C 158.795 11.741,156.230 12.357,154.800 12.775 C 153.370 13.194,151.570 13.651,150.800 13.791 C 150.030 13.931,148.410 14.378,147.200 14.785 C 145.990 15.192,142.840 16.207,140.200 17.040 C 137.560 17.873,135.040 18.772,134.600 19.038 C 134.160 19.304,133.170 19.651,132.400 19.810 C 131.630 19.968,130.191 20.526,129.203 21.049 C 128.215 21.572,127.237 22.000,127.029 22.000 C 125.847 22.000,105.880 31.886,103.941 33.431 C 103.643 33.668,102.500 34.364,101.400 34.978 C 99.510 36.031,89.229 42.747,88.800 43.208 C 88.690 43.326,87.167 44.491,85.415 45.798 C 75.287 53.351,61.714 66.320,53.126 76.653 C 46.757 84.315,45.475 86.024,40.411 93.600 C 35.993 100.208,33.835 103.886,29.379 112.400 C 27.750 115.512,24.000 123.629,24.000 124.042 C 24.000 124.259,23.550 125.282,23.000 126.315 C 22.450 127.348,21.999 128.465,21.998 128.797 C 21.996 129.129,21.708 129.940,21.358 130.600 C 20.666 131.903,19.185 135.987,18.022 139.800 C 17.620 141.120,17.018 142.920,16.685 143.800 C 16.021 145.556,15.136 148.877,14.020 153.800 C 13.621 155.560,13.013 157.990,12.668 159.200 C 12.323 160.410,11.928 162.300,11.789 163.400 C 11.650 164.500,11.194 167.110,10.775 169.200 C 7.313 186.491,7.317 214.702,10.784 233.000 C 11.200 235.200,11.651 237.720,11.784 238.600 C 12.145 240.973,13.931 248.624,14.819 251.600 C 15.245 253.030,15.701 254.740,15.831 255.400 C 15.962 256.060,16.343 257.320,16.679 258.200 C 17.015 259.080,17.617 260.880,18.015 262.200 C 18.414 263.520,19.308 266.130,20.002 268.000 C 20.696 269.870,21.590 272.300,21.990 273.400 C 22.390 274.500,23.004 275.940,23.356 276.600 C 23.707 277.260,23.996 277.946,23.998 278.125 C 24.004 278.974,32.118 295.316,33.244 296.747 C 33.660 297.275,34.000 297.852,34.000 298.027 C 34.000 298.330,35.178 300.379,37.666 304.400 C 38.278 305.390,38.919 306.380,39.089 306.600 C 39.260 306.820,40.104 308.080,40.965 309.400 C 42.497 311.751,48.750 320.405,49.201 320.800 C 49.327 320.910,51.213 323.160,53.392 325.800 C 61.301 335.380,76.363 349.628,86.600 357.214 C 89.996 359.731,98.743 365.742,99.467 366.056 C 99.650 366.135,100.841 366.830,102.113 367.600 C 105.353 369.561,107.870 370.982,110.200 372.165 C 111.300 372.724,112.470 373.361,112.800 373.581 C 113.130 373.801,114.030 374.251,114.800 374.582 C 115.570 374.913,116.470 375.352,116.800 375.557 C 117.390 375.923,119.664 376.985,124.000 378.918 C 125.210 379.458,126.845 380.106,127.633 380.358 C 128.421 380.611,129.764 381.174,130.617 381.609 C 131.471 382.044,132.446 382.401,132.785 382.402 C 133.123 382.404,133.940 382.692,134.600 383.043 C 135.260 383.394,136.700 383.944,137.800 384.265 C 138.900 384.587,140.360 385.105,141.044 385.417 C 141.728 385.729,143.258 386.190,144.444 386.441 C 145.630 386.692,147.050 387.125,147.600 387.403 C 148.150 387.681,149.680 388.120,151.000 388.379 C 152.320 388.637,154.030 389.086,154.800 389.376 C 155.570 389.666,157.550 390.118,159.200 390.380 C 160.850 390.642,163.010 391.113,164.000 391.427 C 164.990 391.740,167.870 392.255,170.400 392.571 C 172.930 392.886,175.833 393.333,176.850 393.563 C 183.096 394.975,216.733 395.161,224.400 393.826 C 226.270 393.501,229.931 392.949,232.535 392.601 C 235.139 392.252,238.019 391.720,238.935 391.420 C 239.851 391.119,241.950 390.654,243.600 390.388 C 245.250 390.121,247.230 389.666,248.000 389.376 C 248.770 389.086,250.480 388.637,251.800 388.379 C 253.120 388.121,254.557 387.722,254.993 387.491 C 255.429 387.261,256.959 386.748,258.393 386.352 C 262.249 385.286,265.985 384.025,267.844 383.163 C 268.748 382.743,269.720 382.400,270.005 382.400 C 270.290 382.400,271.665 381.860,273.062 381.200 C 274.459 380.540,275.791 380.000,276.022 380.000 C 276.253 380.000,277.107 379.648,277.921 379.218 C 278.734 378.788,280.660 377.871,282.200 377.181 C 286.866 375.090,296.928 369.877,298.059 368.963 C 298.357 368.723,299.667 367.927,300.971 367.194 C 315.208 359.187,334.904 342.246,347.936 326.800 C 349.328 325.150,351.152 322.990,351.989 322.000 C 354.906 318.552,361.390 309.392,365.013 303.600 C 366.669 300.953,370.669 293.748,373.340 288.600 C 373.683 287.940,374.522 286.140,375.206 284.600 C 375.889 283.060,376.788 281.080,377.203 280.200 C 378.568 277.307,380.000 273.910,380.000 273.564 C 380.000 273.377,380.433 272.273,380.962 271.112 C 381.490 269.950,382.138 268.190,382.401 267.200 C 382.663 266.210,383.036 265.207,383.229 264.971 C 383.422 264.735,383.875 263.385,384.236 261.971 C 384.596 260.557,385.120 258.950,385.400 258.400 C 385.680 257.850,386.126 256.348,386.391 255.062 C 386.656 253.776,387.103 252.156,387.385 251.462 C 387.667 250.768,388.115 248.940,388.381 247.400 C 388.647 245.860,389.108 243.952,389.405 243.160 C 389.702 242.368,390.143 240.208,390.385 238.360 C 390.627 236.512,391.098 233.875,391.431 232.500 C 391.765 231.125,392.296 227.165,392.612 223.700 C 392.928 220.235,393.367 215.780,393.586 213.800 C 394.080 209.353,394.086 192.540,393.595 188.200 C 393.396 186.440,392.952 182.030,392.608 178.400 C 392.264 174.770,391.731 170.806,391.423 169.591 C 391.115 168.375,390.656 165.868,390.403 164.020 C 390.150 162.171,389.696 159.925,389.395 159.029 C 389.094 158.133,388.634 156.140,388.374 154.600 C 388.113 153.060,387.717 151.450,387.494 151.022 C 387.271 150.595,386.681 148.705,386.183 146.822 C 384.922 142.057,383.682 137.947,383.219 137.000 C 383.004 136.560,382.462 135.165,382.014 133.900 C 380.351 129.202,379.641 127.369,379.031 126.200 C 378.687 125.540,378.404 124.823,378.402 124.606 C 378.401 124.389,377.967 123.309,377.437 122.206 C 376.908 121.103,375.441 118.040,374.177 115.400 C 372.914 112.760,370.712 108.530,369.284 106.000 C 367.856 103.470,366.418 100.881,366.088 100.247 C 364.397 96.996,355.029 83.669,351.834 79.971 C 351.156 79.185,349.790 77.572,348.800 76.388 C 344.621 71.386,343.666 70.340,338.461 65.061 C 325.955 52.377,315.138 43.624,301.562 35.203 C 296.190 31.871,283.990 25.556,278.100 23.060 C 270.841 19.983,266.859 18.402,265.200 17.939 C 264.430 17.724,262.900 17.214,261.800 16.806 C 257.995 15.394,252.124 13.718,245.600 12.184 C 238.277 10.462,235.813 9.957,232.985 9.598 C 231.285 9.383,228.342 8.938,226.447 8.610 C 219.041 7.330,198.797 6.831,185.800 7.608 M183.584 28.392 C 185.085 29.195,185.544 32.422,186.398 48.200 C 187.168 62.419,185.568 60.902,200.436 61.514 C 206.906 61.781,213.910 62.274,216.000 62.610 C 218.090 62.945,221.436 63.477,223.436 63.791 C 231.073 64.989,241.706 68.025,248.850 71.048 C 250.088 71.572,251.246 72.000,251.425 72.000 C 251.604 72.000,254.167 73.215,257.120 74.700 C 264.354 78.338,264.402 78.363,266.000 79.385 C 266.770 79.877,268.300 80.842,269.400 81.529 C 270.500 82.217,271.585 82.933,271.810 83.122 C 272.036 83.310,272.756 83.802,273.410 84.215 C 274.065 84.628,275.140 85.386,275.800 85.900 C 276.460 86.414,277.360 87.099,277.800 87.423 C 285.166 92.845,297.588 104.749,307.600 115.981 C 309.250 117.832,311.361 120.183,312.291 121.205 L 313.982 123.064 312.650 124.432 C 311.917 125.184,310.014 126.790,308.421 128.000 C 306.828 129.210,304.390 131.100,303.004 132.200 C 301.618 133.300,299.182 135.190,297.591 136.400 C 296.000 137.610,293.118 139.860,291.187 141.400 C 280.593 149.848,281.656 149.526,278.624 145.199 C 271.350 134.819,258.207 122.978,247.945 117.557 C 243.453 115.185,236.061 111.600,235.661 111.600 C 235.392 111.600,234.773 111.341,234.286 111.025 C 233.469 110.496,228.846 108.878,222.363 106.854 C 216.137 104.909,200.468 102.146,198.331 102.615 C 196.960 102.916,196.458 104.706,197.359 106.081 C 197.695 106.594,198.226 107.730,198.540 108.607 C 198.853 109.483,200.120 112.333,201.355 114.941 C 202.590 117.549,203.600 119.787,203.600 119.915 C 203.600 120.043,203.941 120.879,204.358 121.774 C 204.775 122.668,206.221 125.920,207.572 129.000 C 210.942 136.684,211.284 137.439,212.718 140.351 C 215.638 146.285,213.316 146.469,195.200 141.740 C 193.990 141.424,191.430 140.827,189.512 140.414 C 187.593 140.000,185.833 139.544,185.600 139.400 C 185.367 139.256,183.607 138.808,181.688 138.404 C 177.179 137.454,171.583 136.116,168.800 135.322 C 167.590 134.976,165.160 134.368,163.400 133.969 C 160.384 133.286,156.944 132.475,147.301 130.171 C 145.046 129.632,141.356 128.769,139.101 128.253 C 136.845 127.737,134.720 127.193,134.378 127.044 C 134.036 126.896,132.146 126.426,130.178 126.000 C 126.592 125.224,124.674 124.770,117.600 123.019 C 115.510 122.501,112.630 121.789,111.200 121.435 C 109.770 121.081,106.980 120.443,105.000 120.018 C 103.020 119.594,100.612 118.966,99.650 118.623 C 98.687 118.280,97.571 118.000,97.169 118.000 C 95.038 118.000,92.328 117.080,91.938 116.225 C 91.461 115.177,94.721 111.876,133.386 74.252 C 151.650 56.480,162.835 45.559,173.894 34.700 C 180.946 27.776,181.617 27.339,183.584 28.392 M78.092 142.230 C 79.031 142.577,80.121 143.032,80.512 143.241 C 80.904 143.451,82.434 144.084,83.912 144.649 C 85.391 145.213,87.680 146.087,89.000 146.590 C 93.506 148.309,110.580 155.272,111.666 155.834 C 113.362 156.711,113.352 156.939,111.421 161.373 C 110.419 163.673,109.600 165.696,109.600 165.868 C 109.600 166.040,109.166 167.355,108.636 168.790 C 101.033 189.385,101.267 214.438,109.278 237.600 C 111.940 245.294,112.383 246.496,112.733 246.957 C 112.918 247.201,113.483 248.443,113.988 249.717 C 114.631 251.338,115.247 252.211,116.038 252.619 L 117.168 253.204 120.176 248.702 C 121.830 246.226,123.862 243.191,124.692 241.958 C 125.521 240.725,126.380 239.440,126.600 239.102 C 126.820 238.764,127.676 237.523,128.503 236.344 C 130.627 233.313,133.153 229.635,136.292 225.004 C 140.593 218.656,141.199 217.995,142.700 218.013 C 144.931 218.039,145.091 218.343,147.945 228.000 C 150.603 236.990,157.661 260.771,158.809 264.600 C 160.053 268.755,161.505 273.652,162.781 278.000 C 164.934 285.338,165.511 287.305,166.716 291.400 C 167.364 293.600,168.111 296.210,168.378 297.200 C 168.645 298.190,169.301 300.484,169.836 302.299 C 172.457 311.176,172.942 312.843,173.823 316.000 C 174.345 317.870,175.040 320.120,175.368 321.000 C 175.696 321.880,175.970 322.870,175.976 323.200 C 175.986 323.769,176.530 325.628,179.053 333.711 C 180.399 338.023,180.098 338.755,177.400 337.741 C 176.520 337.411,174.180 336.699,172.200 336.160 C 170.220 335.621,167.070 334.750,165.200 334.224 C 163.330 333.697,160.720 332.982,159.400 332.634 C 158.080 332.286,155.830 331.640,154.400 331.200 C 152.970 330.760,150.810 330.143,149.600 329.831 C 145.580 328.792,142.633 327.957,139.511 326.973 C 137.812 326.438,136.088 326.000,135.680 326.000 C 135.273 326.000,133.651 325.550,132.077 325.000 C 130.503 324.450,128.874 324.000,128.458 324.000 C 128.041 324.000,126.913 323.712,125.950 323.360 C 124.342 322.772,121.691 322.022,114.200 320.036 C 112.660 319.628,110.678 319.026,109.795 318.698 C 108.912 318.370,107.400 317.969,106.435 317.806 C 105.471 317.643,104.095 317.264,103.377 316.965 C 102.660 316.665,101.202 316.233,100.136 316.005 C 99.071 315.776,96.760 315.157,95.000 314.629 C 93.240 314.100,90.090 313.197,88.000 312.622 C 85.910 312.047,82.760 311.129,81.000 310.581 C 79.240 310.034,77.620 309.590,77.400 309.595 C 77.029 309.603,75.424 309.142,67.000 306.608 C 65.240 306.079,63.124 305.525,62.298 305.378 C 60.528 305.063,58.800 303.249,58.800 301.707 C 58.800 299.606,60.262 298.296,69.143 292.439 C 69.944 291.911,70.660 291.326,70.733 291.139 C 70.807 290.953,71.034 290.800,71.238 290.800 C 71.442 290.800,72.700 290.035,74.033 289.100 C 76.606 287.295,78.871 285.800,81.267 284.324 C 83.544 282.921,84.305 281.377,83.267 280.269 C 82.820 279.791,82.249 278.950,81.999 278.400 C 81.749 277.850,81.030 276.500,80.401 275.400 C 79.431 273.702,75.977 266.823,73.172 261.000 C 72.748 260.120,72.110 258.590,71.755 257.600 C 70.807 254.960,69.381 251.154,68.888 249.950 C 68.651 249.372,68.252 248.112,68.000 247.150 C 67.748 246.187,67.212 244.410,66.808 243.200 C 65.819 240.234,64.089 232.842,63.578 229.400 C 63.349 227.860,62.877 224.800,62.528 222.600 C 61.633 216.966,61.640 199.547,62.539 193.200 C 64.366 180.305,64.616 178.922,66.666 170.400 C 67.010 168.970,67.623 166.319,68.027 164.508 C 68.432 162.698,68.945 160.876,69.168 160.459 C 69.391 160.043,69.834 158.554,70.152 157.151 C 70.470 155.748,71.024 153.700,71.384 152.600 C 71.743 151.500,72.682 148.575,73.469 146.100 C 75.055 141.115,75.059 141.111,78.092 142.230 M332.820 152.522 C 333.307 154.105,334.032 156.750,334.431 158.400 C 335.690 163.598,336.446 166.518,337.227 169.200 C 337.949 171.679,338.799 174.972,340.427 181.600 C 341.489 185.923,342.717 190.608,343.572 193.600 C 343.981 195.030,344.580 197.280,344.904 198.600 C 345.572 201.320,349.101 214.770,350.572 220.200 C 351.942 225.258,356.679 243.047,357.867 247.600 C 358.413 249.690,359.316 253.110,359.873 255.200 C 360.431 257.290,361.215 260.350,361.616 262.000 C 362.017 263.650,362.632 265.899,362.983 266.998 C 364.707 272.399,361.365 274.123,355.073 271.078 C 353.493 270.314,350.220 268.743,347.800 267.587 C 345.380 266.432,341.046 264.335,338.168 262.927 C 332.390 260.101,331.290 260.013,330.273 262.297 C 329.747 263.478,327.873 266.671,325.986 269.600 C 325.349 270.590,324.457 272.030,324.004 272.800 C 315.964 286.469,295.607 306.776,282.498 314.204 C 281.894 314.546,280.680 315.246,279.800 315.759 C 278.402 316.575,277.368 317.152,273.785 319.118 C 273.353 319.355,272.460 319.797,271.800 320.101 C 271.140 320.404,270.240 320.854,269.800 321.101 C 269.360 321.347,267.650 322.117,266.000 322.811 C 264.350 323.505,262.051 324.506,260.891 325.036 C 259.731 325.566,258.494 326.000,258.141 326.000 C 257.789 326.000,256.488 326.420,255.250 326.933 C 252.146 328.220,246.924 329.900,245.000 330.232 C 244.120 330.383,242.950 330.732,242.400 331.008 C 241.850 331.283,240.320 331.723,239.000 331.984 C 237.680 332.245,235.430 332.803,234.000 333.222 C 232.570 333.642,230.050 334.259,228.400 334.593 C 226.750 334.927,224.230 335.464,222.800 335.785 C 214.710 337.601,214.543 337.520,213.786 331.400 C 213.226 326.866,212.037 318.712,210.609 309.600 C 208.597 296.769,208.503 297.066,214.681 296.675 C 216.836 296.539,219.680 296.132,221.000 295.770 C 222.320 295.409,224.570 294.880,226.000 294.594 C 227.430 294.309,229.320 293.798,230.200 293.458 C 231.080 293.119,232.610 292.637,233.600 292.388 C 234.590 292.139,235.760 291.708,236.200 291.431 C 236.640 291.153,237.540 290.795,238.200 290.634 C 242.003 289.706,252.810 284.027,260.147 279.102 C 269.492 272.829,278.267 264.242,286.348 253.462 C 290.297 248.195,290.577 246.967,287.900 246.644 C 286.965 246.532,283.860 246.155,281.000 245.807 C 278.140 245.459,273.010 244.912,269.600 244.592 C 266.190 244.272,261.600 243.744,259.400 243.419 C 257.200 243.094,253.870 242.707,252.000 242.559 C 247.670 242.218,246.944 241.929,246.134 240.231 C 245.338 238.562,245.498 238.313,251.023 232.600 C 252.938 230.620,256.421 227.020,258.763 224.600 C 263.454 219.753,270.161 212.734,275.973 206.589 C 283.710 198.410,287.227 194.733,297.385 184.207 C 303.113 178.272,309.600 171.528,311.800 169.222 C 314.000 166.916,317.701 163.043,320.024 160.615 C 324.265 156.183,327.736 152.486,329.860 150.141 C 331.313 148.537,331.688 148.838,332.820 152.522 " stroke="none" fill="#236bb3" fill-rule="evenodd"></path></g></svg>